#N canvas 1712 34 843 1372 10;
#X obj 105 232 dac~;
#X obj 62 22 loadbang;
#X obj 68 73 delay 100;
#X msg 70 111 1;
#X obj 71 161 tgl 15 0 empty empty empty 17 7 0 10 -262144 -1 -1 1
1;
#X obj 132 159 osc~ 440;
#X connect 1 0 2 0;
#X connect 2 0 3 0;
#X connect 3 0 4 0;
#X connect 4 0 0 0;
#X connect 5 0 0 0;
#X connect 5 0 0 1;
#X coords 0 0 2 1 0 0 0;
